<svg height="512pt" viewBox="0 0 512 512" width="512pt" xmlns="http://www.w3.org/2000/svg"><path d="m512 256c0 141.386719-114.613281 256-256 256s-256-114.613281-256-256 114.613281-256 256-256 256 114.613281 256 256zm0 0" fill="#93d632"/><path d="m509.078125 294.773438-244.277344-244.277344-13.832031 201.621094-163.851562 75.082031 184.324218 184.324219c121.207032-7.214844 219.707032-98.738282 237.636719-216.75zm0 0" fill="#59c612"/><path d="m207.035156 507.300781c15.851563 3.070313 32.214844 4.699219 48.964844 4.699219s33.113281-1.628906 48.964844-4.699219l-25.964844-281.300781h-46zm0 0" fill="#707789"/><path d="m304.964844 507.300781-25.964844-281.300781h-23.191406v285.996094c.066406 0 .128906.003906.191406.003906 16.75 0 33.113281-1.628906 48.964844-4.699219zm0 0" fill="#636978"/><path d="m283.730469 145.359375c0-55.234375-12.414063-100.011719-27.730469-100.011719s-27.730469 44.777344-27.730469 100.011719 12.414063 100.011719 27.730469 100.011719 27.730469-44.777344 27.730469-100.011719zm0 0" fill="#fff"/><path d="m256 45.351562c-.0625 0-.128906.003907-.191406.007813v200.003906c.066406 0 .128906.007813.191406.007813 15.316406 0 27.730469-44.773438 27.730469-100.011719 0-55.234375-12.414063-100.007813-27.730469-100.007813zm0 0" fill="#e9edf5"/><path d="m352.128906 253.1875c-47.832031-27.617188-92.816406-39.253906-100.472656-25.992188-7.65625 13.261719 24.910156 46.402344 72.746094 74.019532 47.832031 27.617187 92.816406 39.253906 100.472656 25.992187s-24.910156-46.402343-72.746094-74.019531zm0 0" fill="#e9edf5"/><path d="m260.332031 227.179688c-7.65625-13.261719-52.640625-1.625-100.472656 25.992187s-80.402344 60.757813-72.746094 74.019531c7.660157 13.261719 52.640625 1.625 100.476563-25.992187 47.832031-27.617188 80.402344-60.757813 72.742187-74.019531zm0 0" fill="#fff"/><path d="m289.640625 229.914062c0 18.578126-15.0625 33.640626-33.640625 33.640626s-33.640625-15.0625-33.640625-33.640626c0-18.578124 15.0625-33.640624 33.640625-33.640624s33.640625 15.0625 33.640625 33.640624zm0 0" fill="#dce1eb"/><path d="m256 196.273438c-.0625 0-.128906.003906-.191406.007812v67.269531c.066406 0 .128906.003907.191406.003907 18.578125 0 33.640625-15.0625 33.640625-33.640626 0-18.578124-15.0625-33.640624-33.640625-33.640624zm0 0" fill="#cdd2e1"/></svg>