<svg id="Layer_2" height="512" viewBox="0 0 128 128" width="512" xmlns="http://www.w3.org/2000/svg" data-name="Layer 2"><ellipse cx="17.25" cy="73.998" fill="#b59e78" rx="15.5" ry="22.625"/><ellipse cx="17.25" cy="73.998" fill="#ccba9a" rx="5.5" ry="12.625"/><path d="m126.25 74c0 12.49-6.94 22.62-15.5 22.62h-93.5c4.51 0 8.57-2.81 11.39-7.3a23.611 23.611 0 0 0 1.83-3.5 31.8 31.8 0 0 0 0-23.65 23.611 23.611 0 0 0 -1.83-3.5c-2.82-4.49-6.88-7.3-11.39-7.3h47.65l10.96-16c0 2.21 4 4 8.93 4s8.93-1.79 8.93-4v16h17.03c7.07 0 13.03 6.91 14.89 16.35a30.094 30.094 0 0 1 .49 3.5c.08.91.12 1.84.12 2.78z" fill="#ccba9a"/><g fill="#271a00"><path d="m24.5 74c0-8.642-4.364-14.375-7.25-14.375a1.75 1.75 0 0 0 -.188 3.49c.915.45 3.938 4.019 3.938 10.885 0 6.448-2.667 9.988-3.75 10.769-1.083-.783-3.75-4.323-3.75-10.769a1.75 1.75 0 0 0 -3.5 0c0 8.642 4.364 14.375 7.25 14.375s7.25-5.735 7.25-14.375z"/><path d="m127.661 69.19c0-.026 0-.053-.01-.079-1.606-11.107-8.574-19.488-16.9-19.488h-15.283v-14.248c0-3.773-5.373-5.748-10.68-5.748-5.006 0-10.066 1.758-10.625 5.124l-10.186 14.872h-46.727c-9.512 0-17.25 10.935-17.25 24.377s7.738 24.373 17.25 24.373h27.083a1.75 1.75 0 1 0 0-3.5h-18.185a21.149 21.149 0 0 0 4.5-5.55h30.352a1.75 1.75 0 0 0 0-3.5h-28.673a33.261 33.261 0 0 0 0-23.65h20.09a1.75 1.75 0 0 0 0-3.5h-21.766a21.149 21.149 0 0 0 -4.5-5.55h38.749a1.751 1.751 0 0 0 1.444-.761l9.424-13.762a8.873 8.873 0 0 0 2.392 1.366 18.336 18.336 0 0 0 6.628 1.154 17.317 17.317 0 0 0 7.18-1.388v11.641a1.75 1.75 0 0 0 1.75 1.75h17.032c6.142 0 11.354 6.147 13.113 14.6h-19.78a1.75 1.75 0 0 0 0 3.5h20.281c.08.91.136 1.832.136 2.775 0 11.511-6.168 20.875-13.75 20.875h-35.95a1.75 1.75 0 0 0 0 3.5h35.95c9.512 0 17.25-10.935 17.25-24.373a34.174 34.174 0 0 0 -.339-4.81zm-124.161 4.81c0-11.511 6.168-20.875 13.75-20.875s13.75 9.362 13.75 20.875-6.168 20.873-13.75 20.873-13.75-9.364-13.75-20.873zm81.288-40.873c4.711 0 7.18 1.67 7.18 2.248s-2.469 2.248-7.18 2.248-7.181-1.67-7.181-2.248 2.469-2.248 7.181-2.248z"/><path d="m62.25 94.873h-5.367a1.75 1.75 0 1 0 0 3.5h5.367a1.75 1.75 0 0 0 0-3.5z"/><path d="m110.333 62.173a1.75 1.75 0 0 0 0-3.5h-44.523a1.75 1.75 0 0 0 0 3.5z"/><path d="m74.8 69.473a1.75 1.75 0 0 0 -1.75-1.75h-21.857a1.75 1.75 0 0 0 0 3.5h21.856a1.75 1.75 0 0 0 1.751-1.75z"/><path d="m110.375 78.523a1.751 1.751 0 0 0 -1.75-1.75h-44.625a1.75 1.75 0 0 0 0 3.5h44.625a1.751 1.751 0 0 0 1.75-1.75z"/><path d="m44.333 76.773a1.75 1.75 0 0 0 0 3.5h8.5a1.75 1.75 0 0 0 0-3.5z"/><path d="m90.375 85.823a1.75 1.75 0 0 0 0 3.5h16.125a1.75 1.75 0 0 0 0-3.5z"/></g></svg>